HIERARCHY
ROOT Hips
{
	OFFSET 0.000000 0.000000 0.000000
	CHANNELS 6 Xposition Yposition Zposition Xrotation Yrotation Zrotation
	JOINT LeftUpLeg_virtual
	{
		OFFSET 0.000000 0.000000 0.000000
		CHANNELS 3 Xrotation Yrotation Zrotation
		JOINT LeftUpLeg
		{
			OFFSET 13.026900 -6.336304 -1.092800
			CHANNELS 3 Xrotation Yrotation Zrotation
			JOINT LeftLeg
			{
				OFFSET 0.524474 -46.096886 9.782700
				CHANNELS 3 Xrotation Yrotation Zrotation
				JOINT LeftFoot
				{
					OFFSET -0.524474 -53.427422 -12.948200
					CHANNELS 3 Xrotation Yrotation Zrotation
					JOINT LeftToeBase
					{
						OFFSET 0.192200 -14.009700 16.364100
						CHANNELS 3 Xrotation Yrotation Zrotation
						JOINT LeftToe_End
						{
							OFFSET -1.784700 -0.561700 9.474800
							CHANNELS 3 Xrotation Yrotation Zrotation
							End Site
							{
								OFFSET 0 0 0
							}
						}
					}
				}
			}
		}
	}
	JOINT RightUpLeg_virtual
	{
		OFFSET 0.000000 0.000000 0.000000
		CHANNELS 3 Xrotation Yrotation Zrotation
		JOINT RightUpLeg
		{
			OFFSET -12.883000 -6.336304 -1.092800
			CHANNELS 3 Xrotation Yrotation Zrotation
			JOINT RightLeg
			{
				OFFSET -0.524587 -46.096825 9.782800
				CHANNELS 3 Xrotation Yrotation Zrotation
				JOINT RightFoot
				{
					OFFSET 0.524587 -53.427383 -12.948300
					CHANNELS 3 Xrotation Yrotation Zrotation
					JOINT RightToeBase
					{
						OFFSET -0.192200 -14.009700 16.364100
						CHANNELS 3 Xrotation Yrotation Zrotation
						JOINT RightToe_End
						{
							OFFSET 1.784700 -0.561700 9.474800
							CHANNELS 3 Xrotation Yrotation Zrotation
							End Site
							{
								OFFSET 0 0 0
							}
						}
					}
				}
			}
		}
	}
	JOINT Spine_virtual
	{
		OFFSET 0.000000 0.000000 0.000000
		CHANNELS 3 Xrotation Yrotation Zrotation
		JOINT Spine
		{
			OFFSET 0.072000 7.257294 -0.789700
			CHANNELS 3 Xrotation Yrotation Zrotation
			JOINT Spine1
			{
				OFFSET 0.000000 12.508769 -0.658067
				CHANNELS 3 Xrotation Yrotation Zrotation
				JOINT Spine1_split
				{
					OFFSET 0.000000 12.508769 -0.658067
					CHANNELS 3 Xrotation Yrotation Zrotation
					JOINT Spine2
					{
						OFFSET 0.000000 12.508769 -0.658067
						CHANNELS 3 Xrotation Yrotation Zrotation
						JOINT Neck_virtual
						{
							OFFSET 0.000000 0.000000 0.000000
							CHANNELS 3 Xrotation Yrotation Zrotation
							JOINT Neck
							{
								OFFSET 0.000000 14.033295 7.520400
								CHANNELS 3 Xrotation Yrotation Zrotation
								JOINT Head
								{
									OFFSET 0.000000 8.198502 5.703100
									CHANNELS 3 Xrotation Yrotation Zrotation
									JOINT HeadTop_End
									{
										OFFSET 0.000000 17.760803 13.332701
										CHANNELS 3 Xrotation Yrotation Zrotation
										End Site
										{
											OFFSET 0 0 0
										}
									}
								}
							}
						}
						JOINT LeftShoulder_virtual
						{
							OFFSET 0.000000 0.000000 0.000000
							CHANNELS 3 Xrotation Yrotation Zrotation
							JOINT LeftShoulder
							{
								OFFSET 6.292450 5.785301 -0.669000
								CHANNELS 3 Xrotation Yrotation Zrotation
								JOINT LeftShoulder_split
								{
									OFFSET 6.292450 5.785301 -0.669000
									CHANNELS 3 Xrotation Yrotation Zrotation
									JOINT LeftArm
									{
										OFFSET 13.907140 -6.093903 1.965100
										CHANNELS 3 Xrotation Yrotation Zrotation
										JOINT LeftForeArm
										{
											OFFSET 34.140198 0.000000 0.000000
											CHANNELS 3 Xrotation Yrotation Zrotation
											JOINT LeftHand
											{
												OFFSET 40.960209 0.000000 0.000000
												CHANNELS 3 Xrotation Yrotation Zrotation
												End Site
												{
													OFFSET 0 0 0
												}
											}
										}
									}
								}
							}
						}
						JOINT RightShoulder_virtual
						{
							OFFSET 0.000000 0.000000 0.000000
							CHANNELS 3 Xrotation Yrotation Zrotation
							JOINT RightShoulder
							{
								OFFSET -6.292450 5.785301 -0.669000
								CHANNELS 3 Xrotation Yrotation Zrotation
								JOINT RightShoulder_split
								{
									OFFSET -6.292450 5.785301 -0.669000
									CHANNELS 3 Xrotation Yrotation Zrotation
									JOINT RightArm
									{
										OFFSET -13.907140 -6.093903 1.965100
										CHANNELS 3 Xrotation Yrotation Zrotation
										JOINT RightForeArm
										{
											OFFSET -34.140198 0.000000 0.000000
											CHANNELS 3 Xrotation Yrotation Zrotation
											JOINT RightHand
											{
												OFFSET -40.960209 0.000000 0.000000
												CHANNELS 3 Xrotation Yrotation Zrotation
												End Site
												{
													OFFSET 0 0 0
												}
											}
										}
									}
								}
							}
						}
					}
				}
			}
		}
	}
}
MOTION
Frames: 9
Frame Time: 0.03333333
-1.136387 104.354973 8.050961 0.000000 0.000000 0.000000 -15.146906 -0.980824 -5.306807 -30.214752 22.326027 9.759216 40.011176 -8.714285 9.750484 -0.015716 -6.689214 0.168894 -2.695825 0.016903 -0.770181 0.000000 0.000000 0.000000 -14.621965 -0.113968 -5.344906 -20.590271 -31.934345 0.116854 35.089619 8.957285 -10.517823 2.328877 8.948314 -6.168361 -3.299018 0.152576 0.007289 0.000000 0.000000 0.000000 -14.914271 -1.534262 -6.003568 5.113990 -1.353130 2.686803 13.656373 -0.779688 -0.519140 0.503108 2.238090 -0.395539 0.000000 0.000000 0.000000 12.164381 -0.268200 -0.709975 12.012030 0.797594 1.015972 -2.542137 0.638055 2.908448 0.000000 0.000000 0.000000 12.509595 -0.116715 -0.830051 0.850254 6.810541 -10.182676 -2.028604 -2.573779 -0.636752 65.954602 -67.253171 -4.334585 0.225350 -26.939687 1.225327 0.000000 0.000000 0.000000 12.661490 -0.301581 -0.823673 1.401420 -1.476992 11.777334 6.275199 0.652091 -2.471799 6.577355 35.966458 57.836792 -0.933392 28.150635 0.424123 0.000000 0.000000 0.000000 
-1.149867 104.366638 8.069340 0.000000 0.000000 0.000000 -15.138184 -0.965197 -5.310071 -30.217952 22.336312 9.760240 40.007119 -8.712073 9.754914 -0.007121 -6.685488 0.170884 -2.696014 0.016674 -0.769499 0.000000 0.000000 0.000000 -14.613787 -0.103826 -5.348336 -20.585876 -31.927747 0.120099 35.071447 8.963061 -10.517492 2.336259 8.963738 -6.157065 -3.319807 0.151270 0.008978 0.000000 0.000000 0.000000 -14.900479 -1.517420 -6.004377 5.105384 -1.350338 2.688560 13.656450 -0.778969 -0.521859 0.501884 2.232680 -0.397723 0.000000 0.000000 0.000000 12.168944 -0.268084 -0.712937 12.017913 0.797802 1.014843 -2.555204 0.645379 2.905860 0.000000 0.000000 0.000000 12.512119 -0.116103 -0.830623 0.848564 6.797159 -10.180417 -2.039135 -2.565605 -0.627193 65.920355 -67.218788 -4.356254 0.212729 -26.942470 1.210399 0.000000 0.000000 0.000000 12.658326 -0.303163 -0.825353 1.401219 -1.482820 11.777202 6.283617 0.647978 -2.468443 6.565272 35.977591 57.845528 -0.935576 28.171318 0.425995 0.000000 0.000000 0.000000 
-1.163449 104.383606 8.085648 0.000000 0.000000 0.000000 -15.123480 -0.924210 -5.315496 -30.220216 22.328208 9.756763 39.992492 -8.719662 9.763100 0.006538 -6.689124 0.173276 -2.698829 0.016010 -0.766627 0.000000 0.000000 0.000000 -14.599210 -0.079279 -5.355423 -20.573069 -31.953042 0.119162 35.038225 8.969350 -10.513364 2.340504 8.990432 -6.153986 -3.322177 0.151624 0.013166 0.000000 0.000000 0.000000 -14.879181 -1.486206 -6.007950 5.101112 -1.348619 2.695119 13.654647 -0.783631 -0.524594 0.506634 2.232106 -0.397985 0.000000 0.000000 0.000000 12.172258 -0.273173 -0.716748 12.012743 0.798650 1.030116 -2.579341 0.677548 2.891214 0.000000 0.000000 0.000000 12.513123 -0.121187 -0.830967 0.846492 6.791362 -10.173768 -2.042309 -2.573587 -0.618088 65.670097 -67.200169 -4.576593 0.201766 -26.912277 1.198030 0.000000 0.000000 0.000000 12.653329 -0.310324 -0.827621 1.402298 -1.489241 11.768284 6.290170 0.650947 -2.463308 6.554663 35.984889 57.857002 -0.934105 28.194142 0.427843 0.000000 0.000000 0.000000 
-1.173970 104.398163 8.099556 0.000000 0.000000 0.000000 -15.106954 -0.864749 -5.321485 -30.223597 22.305574 9.749665 39.974925 -8.730843 9.772181 0.022552 -6.695770 0.182299 -2.702867 0.014990 -0.762693 0.000000 0.000000 0.000000 -14.583344 -0.038979 -5.364379 -20.557940 -32.006307 0.111721 34.997182 8.974351 -10.506585 2.339219 9.021339 -6.159739 -3.310747 0.153955 0.018696 0.000000 0.000000 0.000000 -14.856898 -1.442251 -6.012776 5.102337 -1.348708 2.704799 13.651549 -0.792895 -0.526780 0.510437 2.237784 -0.400425 0.000000 0.000000 0.000000 12.175866 -0.282752 -0.720051 11.996453 0.800762 1.059595 -2.611312 0.732371 2.864360 0.000000 0.000000 0.000000 12.512682 -0.131030 -0.830386 0.843769 6.794301 -10.162138 -2.041238 -2.589066 -0.609672 65.221613 -67.201876 -4.986501 0.194269 -26.861896 1.190512 0.000000 0.000000 0.000000 12.647571 -0.322248 -0.829774 1.404928 -1.494356 11.751354 6.296424 0.665193 -2.457296 6.548916 35.990316 57.867910 -0.929410 28.213667 0.429917 0.000000 0.000000 0.000000 
-1.181274 104.407982 8.112480 0.000000 0.000000 0.000000 -15.090589 -0.794364 -5.325890 -30.229143 22.274142 9.737782 39.960469 -8.738800 9.779170 0.036011 -6.699351 0.204235 -2.706478 0.014193 -0.759063 0.000000 0.000000 0.000000 -14.567424 0.017651 -5.371500 -20.545556 -32.077970 0.094750 34.961495 8.979778 -10.499524 2.332481 9.051705 -6.162484 -3.308135 0.158199 0.023200 0.000000 0.000000 0.000000 -14.837879 -1.388296 -6.017345 5.109457 -1.351916 2.714855 13.648235 -0.806062 -0.527583 0.513359 2.244217 -0.403962 0.000000 0.000000 0.000000 12.180346 -0.295748 -0.721609 11.970464 0.803939 1.099311 -2.645488 0.808338 2.825496 0.000000 0.000000 0.000000 12.511897 -0.144790 -0.827844 0.840217 6.806893 -10.143225 -2.037614 -2.608631 -0.602684 64.612299 -67.224942 -5.554721 0.192606 -26.798133 1.189490 0.000000 0.000000 0.000000 12.642009 -0.338152 -0.830858 1.408933 -1.496727 11.726269 6.299856 0.686502 -2.449022 6.550604 35.997214 57.872070 -0.922984 28.223178 0.432638 0.000000 0.000000 0.000000 
-1.185593 104.410194 8.124096 0.000000 0.000000 0.000000 -15.073343 -0.718437 -5.326627 -30.237592 22.237634 9.721277 39.952184 -8.739814 9.782268 0.044066 -6.695768 0.239414 -2.708885 0.014051 -0.756855 0.000000 0.000000 0.000000 -14.553977 0.087792 -5.374844 -20.538090 -32.152723 0.069036 34.939460 8.987254 -10.494966 2.325160 9.075263 -6.153035 -3.325817 0.163693 0.024688 0.000000 0.000000 0.000000 -14.825025 -1.326625 -6.019103 5.120503 -1.359096 2.723043 13.645259 -0.822537 -0.526435 0.513670 2.248466 -0.412307 0.000000 0.000000 0.000000 12.186704 -0.311888 -0.720431 11.935458 0.808946 1.144445 -2.674371 0.902978 2.776612 0.000000 0.000000 0.000000 12.512343 -0.161646 -0.822873 0.835740 6.828002 -10.115005 -2.026041 -2.631927 -0.592783 63.899514 -67.266722 -6.232452 0.196127 -26.724082 1.194869 0.000000 0.000000 0.000000 12.639017 -0.357283 -0.829606 1.414465 -1.494383 11.694414 6.298753 0.704823 -2.437411 6.562879 36.008955 57.865561 -0.916463 28.219972 0.437009 0.000000 0.000000 0.000000 
-1.189068 104.407562 8.135017 0.000000 0.000000 0.000000 -15.059430 -0.643155 -5.323392 -30.246895 22.198975 9.699872 39.948212 -8.736153 9.782029 0.048624 -6.684314 0.280350 -2.710564 0.014707 -0.756329 0.000000 0.000000 0.000000 -14.543013 0.165581 -5.372840 -20.535561 -32.214519 0.039251 34.934874 8.996017 -10.493597 2.314837 9.083382 -6.125842 -3.352575 0.169522 0.022709 0.000000 0.000000 0.000000 -14.818976 -1.257195 -6.017199 5.134214 -1.371538 2.728445 13.642508 -0.842093 -0.522513 0.511749 2.249402 -0.421667 0.000000 0.000000 0.000000 12.194181 -0.330534 -0.715912 11.893528 0.816135 1.190075 -2.690980 1.008774 2.721260 0.000000 0.000000 0.000000 12.515469 -0.181165 -0.815450 0.830348 6.854603 -10.077218 -2.018239 -2.649263 -0.582619 63.149176 -67.318215 -6.961129 0.201700 -26.629869 1.204303 0.000000 0.000000 0.000000 12.639390 -0.378590 -0.825144 1.422259 -1.485670 11.657065 6.295762 0.718674 -2.422589 6.589315 36.027083 57.843574 -0.911231 28.206436 0.442842 0.000000 0.000000 0.000000 
-1.189731 104.404152 8.142780 0.000000 0.000000 0.000000 -15.049845 -0.568923 -5.317555 -30.255487 22.159874 9.674401 39.947352 -8.732853 9.779504 0.053545 -6.667698 0.317485 -2.711625 0.015966 -0.757336 0.000000 0.000000 0.000000 -14.533908 0.245428 -5.366390 -20.534778 -32.251224 0.013274 34.945949 9.001953 -10.494708 2.295620 9.067621 -6.086776 -3.370062 0.175157 0.017948 0.000000 0.000000 0.000000 -14.816810 -1.184320 -6.012192 5.148169 -1.389518 2.732532 13.640799 -0.864382 -0.514815 0.506186 2.251975 -0.427524 0.000000 0.000000 0.000000 12.201818 -0.351559 -0.707588 11.845526 0.824309 1.232263 -2.691008 1.117782 2.662910 0.000000 0.000000 0.000000 12.522164 -0.203234 -0.805621 0.824051 6.882838 -10.031645 -2.013261 -2.668437 -0.573818 62.416782 -67.371306 -7.693371 0.207044 -26.507947 1.215733 0.000000 0.000000 0.000000 12.643379 -0.401613 -0.816648 1.432052 -1.468892 11.616263 6.292770 0.731858 -2.406891 6.632655 36.047020 57.802532 -0.908636 28.189289 0.450348 0.000000 0.000000 0.000000 
-1.186434 104.402039 8.146980 0.000000 0.000000 0.000000 -15.044530 -0.498004 -5.311011 -30.263790 22.124929 9.648219 39.949654 -8.731499 9.774947 0.062588 -6.650452 0.345304 -2.712263 0.017524 -0.759174 0.000000 0.000000 0.000000 -14.526656 0.321205 -5.357751 -20.528772 -32.253526 0.003225 34.965221 8.997102 -10.496444 2.261647 9.017030 -6.050104 -3.364183 0.179951 0.011675 0.000000 0.000000 0.000000 -14.818130 -1.112588 -6.006468 5.161537 -1.412224 2.738856 13.640213 -0.888299 -0.502787 0.497993 2.254493 -0.428436 0.000000 0.000000 0.000000 12.208742 -0.374115 -0.695047 11.792287 0.832872 1.266249 -2.674387 1.221170 2.605611 0.000000 0.000000 0.000000 12.531565 -0.227206 -0.793394 0.817067 6.909057 -9.984055 -2.011371 -2.684283 -0.564953 61.740935 -67.423932 -8.392902 0.209082 -26.365381 1.228326 0.000000 0.000000 0.000000 12.650231 -0.425236 -0.803896 1.443356 -1.442423 11.572397 6.294120 0.746731 -2.392383 6.689389 36.059690 57.745582 -0.909482 28.176021 0.458663 0.000000 0.000000 0.000000 
